HIERARCHY
ROOT hips_JNT
{
  OFFSET 0 79.1032 1.32574
  CHANNELS 6 Xposition Yposition Zposition Zrotation Xrotation Yrotation
  JOINT spine_JNT
  {
    OFFSET 0 4.13037 -0.00851196
    CHANNELS 6 Xposition Yposition Zposition Zrotation Xrotation Yrotation
    JOINT spine1_JNT
    {
      OFFSET 0 10.694 -0.00556841
      CHANNELS 6 Xposition Yposition Zposition Zrotation Xrotation Yrotation
      JOINT spine2_JNT
      {
        OFFSET 0 10.1532 -0.0126238
        CHANNELS 6 Xposition Yposition Zposition Zrotation Xrotation Yrotation
        JOINT l_shoulder_JNT
        {
          OFFSET 2.88666 12.5391 -0.534974
          CHANNELS 6 Xposition Yposition Zposition Zrotation Xrotation Yrotation
          JOINT l_arm_JNT
          {
            OFFSET 10.2653 3.8147e-05 2.00272e-05
            CHANNELS 6 Xposition Yposition Zposition Zrotation Xrotation Yrotation
            JOINT l_forearm_JNT
            {
              OFFSET 25.5729 0 0
              CHANNELS 6 Xposition Yposition Zposition Zrotation Xrotation Yrotation
              JOINT l_hand_JNT
              {
                OFFSET 19.8068 -0.345714 0
                CHANNELS 6 Xposition Yposition Zposition Zrotation Xrotation Yrotation
                JOINT l_handThumb1_JNT
                {
                  OFFSET 1.78384 -1.25249 3.61961
                  CHANNELS 6 Xposition Yposition Zposition Zrotation Xrotation Yrotation
                  JOINT l_handThumb2_JNT
                  {
                    OFFSET 2.63924 -0.0236215 -0.0531074
                    CHANNELS 6 Xposition Yposition Zposition Zrotation Xrotation Yrotation
                    JOINT l_handThumb3_JNT
                    {
                      OFFSET 2.81729 0.161941 -1.92873e-05
                      CHANNELS 6 Xposition Yposition Zposition Zrotation Xrotation Yrotation
                      JOINT l_handThumb4_JNT
                      {
                        OFFSET 3.92326 0 -1.52588e-05
                        CHANNELS 6 Xposition Yposition Zposition Zrotation Xrotation Yrotation
                        End Site
                        {
                          OFFSET 0 0 0
                        }
                      }
                    }
                  }
                }
                JOINT l_handIndex1_JNT
                {
                  OFFSET 8.21789 -0.0980638 3.75293
                  CHANNELS 6 Xposition Yposition Zposition Zrotation Xrotation Yrotation
                  JOINT l_handIndex2_JNT
                  {
                    OFFSET 3.89627 0.286875 0
                    CHANNELS 6 Xposition Yposition Zposition Zrotation Xrotation Yrotation
                    JOINT l_handIndex3_JNT
                    {
                      OFFSET 2.31843 0.158301 0
                      CHANNELS 6 Xposition Yposition Zposition Zrotation Xrotation Yrotation
                      JOINT l_handIndex4_JNT
                      {
                        OFFSET 2.56603 -2.28882e-05 0
                        CHANNELS 6 Xposition Yposition Zposition Zrotation Xrotation Yrotation
                        End Site
                        {
                          OFFSET 0 0 0
                        }
                      }
                    }
                  }
                }
                JOINT l_handPinky1_JNT
                {
                  OFFSET 7.34662 -0.990183 -3.35839
                  CHANNELS 6 Xposition Yposition Zposition Zrotation Xrotation Yrotation
                  JOINT l_handPinky2_JNT
                  {
                    OFFSET 2.92345 0.0657637 0
                    CHANNELS 6 Xposition Yposition Zposition Zrotation Xrotation Yrotation
                    JOINT l_handPinky3_JNT
                    {
                      OFFSET 1.90305 -0.0136203 0
                      CHANNELS 6 Xposition Yposition Zposition Zrotation Xrotation Yrotation
                      JOINT l_handPinky4_JNT
                      {
                        OFFSET 2.8257 0 0
                        CHANNELS 6 Xposition Yposition Zposition Zrotation Xrotation Yrotation
                        End Site
                        {
                          OFFSET 0 0 0
                        }
                      }
                    }
                  }
                }
                JOINT l_handRing1_JNT
                {
                  OFFSET 8.73626 -0.299045 -1.40318
                  CHANNELS 6 Xposition Yposition Zposition Zrotation Xrotation Yrotation
                  JOINT l_handRing2_JNT
                  {
                    OFFSET 3.6708 0.00369462 0
                    CHANNELS 6 Xposition Yposition Zposition Zrotation Xrotation Yrotation
                    JOINT l_handRing3_JNT
                    {
                      OFFSET 2.39166 0.00574558 0
                      CHANNELS 6 Xposition Yposition Zposition Zrotation Xrotation Yrotation
                      JOINT l_handRing4_JNT
                      {
                        OFFSET 2.88243 0 0
                        CHANNELS 6 Xposition Yposition Zposition Zrotation Xrotation Yrotation
                        End Site
                        {
                          OFFSET 0 0 0
                        }
                      }
                    }
                  }
                }
                JOINT l_handMiddle1_JNT
                {
                  OFFSET 9.01306 0.0540986 1.28481
                  CHANNELS 6 Xposition Yposition Zposition Zrotation Xrotation Yrotation
                  JOINT l_handMiddle2_JNT
                  {
                    OFFSET 3.91803 0.0559228 0
                    CHANNELS 6 Xposition Yposition Zposition Zrotation Xrotation Yrotation
                    JOINT l_handMiddle3_JNT
                    {
                      OFFSET 2.51718 0.0196203 0
                      CHANNELS 6 Xposition Yposition Zposition Zrotation Xrotation Yrotation
                      JOINT l_handMiddle4_JNT
                      {
                        OFFSET 3.28131 0 0
                        CHANNELS 6 Xposition Yposition Zposition Zrotation Xrotation Yrotation
                        End Site
                        {
                          OFFSET 0 0 0
                        }
                      }
                    }
                  }
                }
              }
            }
          }
        }
        JOINT r_shoulder_JNT
        {
          OFFSET -2.88677 12.5391 -0.534969
          CHANNELS 6 Xposition Yposition Zposition Zrotation Xrotation Yrotation
          JOINT r_arm_JNT
          {
            OFFSET -10.2653 -4.57764e-05 -2.00272e-05
            CHANNELS 6 Xposition Yposition Zposition Zrotation Xrotation Yrotation
            JOINT r_forearm_JNT
            {
              OFFSET -25.5729 0 0
              CHANNELS 6 Xposition Yposition Zposition Zrotation Xrotation Yrotation
              JOINT r_hand_JNT
              {
                OFFSET -19.807 -0.346 0
                CHANNELS 6 Xposition Yposition Zposition Zrotation Xrotation Yrotation
                JOINT r_handThumb1_JNT
                {
                  OFFSET -1.80121 -1.26684 3.57624
                  CHANNELS 6 Xposition Yposition Zposition Zrotation Xrotation Yrotation
                  JOINT r_handThumb2_JNT
                  {
                    OFFSET -2.63925 -0.0236185 -0.053142
                    CHANNELS 6 Xposition Yposition Zposition Zrotation Xrotation Yrotation
                    JOINT r_handThumb3_JNT
                    {
                      OFFSET -2.69898 -0.823876 3.23385e-05
                      CHANNELS 6 Xposition Yposition Zposition Zrotation Xrotation Yrotation
                      JOINT r_handThumb4_JNT
                      {
                        OFFSET -3.8753 -0.61178 -2.783e-05
                        CHANNELS 6 Xposition Yposition Zposition Zrotation Xrotation Yrotation
                        End Site
                        {
                          OFFSET 0 0 0
                        }
                      }
                    }
                  }
                }
                JOINT r_handRing1_JNT
                {
                  OFFSET -8.7541 -0.321932 -1.44759
                  CHANNELS 6 Xposition Yposition Zposition Zrotation Xrotation Yrotation
                  JOINT r_handRing2_JNT
                  {
                    OFFSET -3.67081 0.00366535 1.14975e-05
                    CHANNELS 6 Xposition Yposition Zposition Zrotation Xrotation Yrotation
                    JOINT r_handRing3_JNT
                    {
                      OFFSET -2.39166 0.00568729 0
                      CHANNELS 6 Xposition Yposition Zposition Zrotation Xrotation Yrotation
                      JOINT r_handRing4_JNT
                      {
                        OFFSET -2.88246 2.68889e-05 0
                        CHANNELS 6 Xposition Yposition Zposition Zrotation Xrotation Yrotation
                        End Site
                        {
                          OFFSET 0 0 0
                        }
                      }
                    }
                  }
                }
                JOINT r_handPinky1_JNT
                {
                  OFFSET -7.36435 -1.01523 -3.40195
                  CHANNELS 6 Xposition Yposition Zposition Zrotation Xrotation Yrotation
                  JOINT r_handPinky2_JNT
                  {
                    OFFSET -2.92337 0.0657748 -1.53088e-05
                    CHANNELS 6 Xposition Yposition Zposition Zrotation Xrotation Yrotation
                    JOINT r_handPinky3_JNT
                    {
                      OFFSET -1.90311 -0.0136937 0
                      CHANNELS 6 Xposition Yposition Zposition Zrotation Xrotation Yrotation
                      JOINT r_handPinky4_JNT
                      {
                        OFFSET -2.82564 6.28375e-05 2.02874e-05
                        CHANNELS 6 Xposition Yposition Zposition Zrotation Xrotation Yrotation
                        End Site
                        {
                          OFFSET 0 0 0
                        }
                      }
                    }
                  }
                }
                JOINT r_handMiddle1_JNT
                {
                  OFFSET -9.03092 0.0345364 1.23996
                  CHANNELS 6 Xposition Yposition Zposition Zrotation Xrotation Yrotation
                  JOINT r_handMiddle2_JNT
                  {
                    OFFSET -3.91801 0.0581239 -0.000244626
                    CHANNELS 6 Xposition Yposition Zposition Zrotation Xrotation Yrotation
                    JOINT r_handMiddle3_JNT
                    {
                      OFFSET -2.51717 0.020931 -0.000343851
                      CHANNELS 6 Xposition Yposition Zposition Zrotation Xrotation Yrotation
                      JOINT r_handMiddle4_JNT
                      {
                        OFFSET -3.281 5.34608e-05 0
                        CHANNELS 6 Xposition Yposition Zposition Zrotation Xrotation Yrotation
                        End Site
                        {
                          OFFSET 0 0 0
                        }
                      }
                    }
                  }
                }
                JOINT r_handIndex1_JNT
                {
                  OFFSET -8.23562 -0.114204 3.70825
                  CHANNELS 6 Xposition Yposition Zposition Zrotation Xrotation Yrotation
                  JOINT r_handIndex2_JNT
                  {
                    OFFSET -3.89614 0.2885 -0.000463277
                    CHANNELS 6 Xposition Yposition Zposition Zrotation Xrotation Yrotation
                    JOINT r_handIndex3_JNT
                    {
                      OFFSET -2.31839 0.159237 -0.000487052
                      CHANNELS 6 Xposition Yposition Zposition Zrotation Xrotation Yrotation
                      JOINT r_handIndex4_JNT
                      {
                        OFFSET -2.566 0 0
                        CHANNELS 6 Xposition Yposition Zposition Zrotation Xrotation Yrotation
                        End Site
                        {
                          OFFSET 0 0 0
                        }
                      }
                    }
                  }
                }
              }
            }
          }
        }
        JOINT neck_JNT
        {
          OFFSET 0 17.0656 0.263753
          CHANNELS 6 Xposition Yposition Zposition Zrotation Xrotation Yrotation
          JOINT head_JNT
          {
            OFFSET 0 8.13758 0.00775528
            CHANNELS 6 Xposition Yposition Zposition Zrotation Xrotation Yrotation
            JOINT headtop_End_JNT
            {
              OFFSET 0 29.3713 3.60361
              CHANNELS 6 Xposition Yposition Zposition Zrotation Xrotation Yrotation
              End Site
              {
                OFFSET 0 0 0
              }
            }
            JOINT l_eye_LOC
            {
              OFFSET 5.1001 12.3524 9.66465
              CHANNELS 6 Xposition Yposition Zposition Zrotation Xrotation Yrotation
              JOINT l_eye_JNT
              {
                OFFSET 0 -0.0458202 0
                CHANNELS 6 Xposition Yposition Zposition Zrotation Xrotation Yrotation
                End Site
                {
                  OFFSET 0 0 0
                }
              }
            }
            JOINT r_eye_LOC
            {
              OFFSET -5.0999 12.3066 9.66418
              CHANNELS 6 Xposition Yposition Zposition Zrotation Xrotation Yrotation
              JOINT r_eye_JNT
              {
                OFFSET 0 0 0
                CHANNELS 6 Xposition Yposition Zposition Zrotation Xrotation Yrotation
                End Site
                {
                  OFFSET 0 0 0
                }
              }
            }
          }
        }
      }
    }
  }
  JOINT r_upleg_JNT
  {
    OFFSET -7.5159 1.52588e-05 0
    CHANNELS 6 Xposition Yposition Zposition Zrotation Xrotation Yrotation
    JOINT r_leg_JNT
    {
      OFFSET -0.724057 -37.7363 0.184397
      CHANNELS 6 Xposition Yposition Zposition Zrotation Xrotation Yrotation
      JOINT r_foot_JNT
      {
        OFFSET 0.000125885 -34.5752 -3.52859e-05
        CHANNELS 6 Xposition Yposition Zposition Zrotation Xrotation Yrotation
        JOINT r_toebase_JNT
        {
          OFFSET 1.14441e-05 -6.10491 11.1619
          CHANNELS 6 Xposition Yposition Zposition Zrotation Xrotation Yrotation
          End Site
          {
            OFFSET 0 0 0
          }
        }
      }
    }
  }
  JOINT l_upleg_JNT
  {
    OFFSET 7.51591 0 0
    CHANNELS 6 Xposition Yposition Zposition Zrotation Xrotation Yrotation
    JOINT l_leg_JNT
    {
      OFFSET 0.00021553 -37.7436 0.0132276
      CHANNELS 6 Xposition Yposition Zposition Zrotation Xrotation Yrotation
      JOINT l_foot_JNT
      {
        OFFSET 5.34058e-05 -34.5752 -3.57628e-05
        CHANNELS 6 Xposition Yposition Zposition Zrotation Xrotation Yrotation
        JOINT l_toebase_JNT
        {
          OFFSET 0 -6.10494 11.1619
          CHANNELS 6 Xposition Yposition Zposition Zrotation Xrotation Yrotation
          End Site
          {
            OFFSET 0 0 0
          }
        }
      }
    }
  }
}
MOTION
Frames:	2
Frame Time:	0.0333333
1.75776e-10 79.8372 1.82544 0.00132175 6.0783 -0.000140389 0 4.13037 -0.00851196 0.00691622 -3.09018 -6.68322e-06 0 10.694 -0.00556841 0.0148605 -4.62963 0.00327772 -6.93889e-18 10.1532 -0.0126238 0.00924108 -15.8541 0.0012404 2.88666 12.5391 -0.534974 -2.282 -0.408461 9.77121 10.2653 3.8147e-05 2.00272e-05 -78.6654 11.6826 21.0383 25.5729 -3.55271e-15 2.86102e-06 0.348578 -0.0410865 -21.6468 19.8068 -0.345714 6.15208e-06 -4.51498 -2.10512 16.0584 1.78215 -1.2527 3.62354 40.3776 39.3924 -58.6991 2.63924 -0.0236215 -0.0531074 -29.897 1.02077e-05 2.07842e-05 2.81729 0.161941 -1.92873e-05 -14.1171 -7.15714e-06 -2.61593e-05 3.92326 -1.77636e-15 -1.52588e-05 -1.70756e-06 2.0704e-05 2.84947e-05 8.2162 -0.0982717 3.75685 -14.8339 10.5677 -1.56966 3.89627 0.286875 -4.83507e-06 -17.9176 3.95871e-05 2.733e-05 2.31843 0.158301 -1.80224e-06 -6.22973 2.83277e-05 6.83708e-06 2.56603 -2.28882e-05 7.62939e-06 8.35144e-13 -2.77476e-05 1.70755e-06 7.34493 -0.990391 -3.35447 -18.4248 -12.1037 -5.86722 2.92345 0.0657637 8.01938e-06 -28.2505 -7.74574e-05 -3.51926e-05 1.90305 -0.0136203 2.87116e-06 -24.2017 3.5155e-05 -1.62271e-05 2.8257 -7.6294e-06 5.72205e-06 3.4151e-06 2.13443e-07 4.26887e-07 8.73458 -0.299253 -1.39926 -30.2883 -9.01507 -7.72039 3.6708 0.00369461 2.9198e-06 -22.2712 1.88512e-05 3.11398e-07 2.39166 0.00574559 6.69124e-07 -18.4805 -0.00013878 -2.4969e-05 2.88243 7.6294e-06 2.38419e-07 6.83019e-06 1.38738e-06 3.41509e-06 9.01138 0.0538907 1.28874 -19.1134 -3.49547 -2.38608 3.91803 0.0559228 -2.96718e-06 -34.6556 -3.18027e-05 6.35538e-06 2.51718 0.0196203 -9.63e-07 -3.39673 -6.09597e-05 -1.77916e-05 3.28131 0 5.72205e-06 8.53774e-06 2.56132e-06 2.56132e-06 -2.88677 12.5391 -0.534969 4.56199 0.705277 0.296722 -10.2653 -4.57764e-05 -2.00272e-05 74.813 -1.64762 -21.8565 -25.5729 -7.10543e-15 -9.53675e-06 -0.233036 -0.0170377 18.6445 -19.807 -0.346 3.55272e-15 6.05915 8.01031 -9.15645 -1.80096 -1.26804 3.56634 -40.8015 38.7071 58.953 -2.63925 -0.0236185 -0.053142 8.89983 -7.95139e-15 1.13035e-05 -2.69898 -0.823876 3.23385e-05 24.6797 3.18055e-15 -1.59035e-05 -3.8753 -0.61178 -2.783e-05 5.46415e-05 -2.71073e-05 6.61675e-06 -8.75384 -0.32313 -1.4575 29.35 -9.21046 7.59817 -3.67081 0.00366537 1.15147e-05 21.313 0.000347453 -4.17457e-05 -2.39166 0.00568728 -4.80439e-06 17.5227 -1.59028e-15 -9.45548e-06 -2.88246 2.68889e-05 6.63519e-06 -1.70755e-06 2.13443e-05 1.59028e-15 -7.36409 -1.01643 -3.41185 17.4686 -12.2791 5.66515 -2.92337 0.0657748 -1.52596e-05 27.2923 3.83791e-05 -4.2368e-05 -1.90311 -0.0136937 3.52493e-06 23.2439 -4.4441e-05 1.93018e-05 -2.82564 6.28375e-05 2.02874e-05 2.73208e-05 -4.05542e-06 2.86014e-05 -9.03066 0.0333379 1.23005 18.2058 -3.62658 2.3609 -3.91801 0.0581239 -0.000244625 33.6975 0.000155678 -0.000133569 -2.51717 0.020931 -0.000343851 2.43868 -5.73835e-05 -4.27469e-05 -3.281 5.34608e-05 9.21197e-07 1.70755e-06 5.54953e-06 -2.86014e-05 -8.23536 -0.115403 3.69835 13.9042 10.4451 1.78306 -3.89614 0.2885 -0.000463273 16.9595 -7.04453e-05 4.08028e-05 -2.31839 0.159237 -0.000487052 5.27166 0.000236678 -1.30331e-06 -2.566 -7.68439e-06 -1.0274e-06 -1.70755e-06 -8.53774e-07 -2.73208e-05 0 17.0656 0.263753 0.000245615 23.8034 -3.13567e-05 6.93889e-18 8.13758 0.00775528 -0.0540177 -3.78691 -0.0103808 5.68135e-07 29.3713 3.60361 -1.95045e-07 5.2964 2.28846e-06 5.1001 12.3524 9.66465 -0.000255643 0.586901 -1.94136e-19 1.01129e-07 -0.0458202 3.30427e-07 -3.36025e-17 -7.95139e-16 -6 -5.0999 12.3066 9.66418 -0.000255643 0.586901 -1.94136e-19 -8.9603e-08 1.93153e-06 3.30583e-07 -6.26055e-18 -3.97569e-16 -1.94126e-19 -7.5159 1.52588e-05 7.62939e-06 0.373261 -6.95755 -4.58491 -0.724057 -37.7363 0.184397 -1.10186 8.32504 0.0892736 0.000125885 -34.5752 -3.52859e-05 0.654587 -7.47807 -8.47906 1.14441e-05 -6.10491 11.1619 0.798055 0.278452 -0.0050841 7.51591 -1.42109e-14 -7.62939e-06 0.750863 -7.1234 4.7554 0.00021553 -37.7436 0.0132276 -0.000701011 8.5752 0.00236544 5.34058e-05 -34.5752 -3.57628e-05 -0.66152 -7.47192 9.37186 -1.90735e-06 -6.10494 11.1619 -0.278484 0.798093 -0.00114913 
1.75776e-10 79.8375 1.82549 0.00132175 6.08237 -0.000140501 0 4.13037 -0.00851196 0.00691622 -3.09122 -6.77054e-06 3.46945e-18 10.694 -0.00556841 0.0148605 -4.63115 0.00327997 0 10.1532 -0.0126238 0.00924097 -15.8613 0.00124156 2.88666 12.5391 -0.534974 -2.24042 -0.4028 9.80475 10.2653 3.8147e-05 2.00272e-05 -78.6961 11.7086 20.967 25.5729 0 2.86102e-06 0.345638 -0.0401505 -21.5193 19.8068 -0.345714 6.15208e-06 -4.51668 -2.11487 16.0507 1.78212 -1.2527 3.62358 40.3942 39.3712 -58.7097 2.63924 -0.0236215 -0.0531074 -29.8722 1.02175e-05 2.07815e-05 2.81729 0.161941 -1.92873e-05 -14.0923 -7.16845e-06 -2.61562e-05 3.92326 8.88179e-16 -1.52588e-05 -1.70756e-06 2.0704e-05 2.84947e-05 8.21618 -0.0982752 3.7569 -14.6911 10.5638 -1.5959 3.89627 0.286875 -4.83536e-06 -17.7771 3.96627e-05 2.7241e-05 2.31843 0.158301 -1.80224e-06 -6.08925 2.83443e-05 6.7676e-06 2.56603 -2.28882e-05 7.62939e-06 8.25254e-13 -2.77476e-05 1.70755e-06 7.3449 -0.990395 -3.35442 -18.2818 -12.1181 -5.83712 2.92345 0.0657637 8.01946e-06 -28.11 -7.75659e-05 -3.50127e-05 1.90305 -0.0136203 2.8713e-06 -24.0612 3.51167e-05 -1.63172e-05 2.8257 -7.6294e-06 5.72205e-06 3.4151e-06 2.13443e-07 4.26887e-07 8.73455 -0.299256 -1.39921 -30.1474 -9.03395 -7.69823 3.6708 0.00369462 2.92032e-06 -22.1307 1.88442e-05 2.53203e-07 2.39166 0.00574559 6.71553e-07 -18.34 -0.000138822 -2.46839e-05 2.88243 7.6294e-06 2.38419e-07 6.83019e-06 1.38738e-06 3.41509e-06 9.01135 0.0538872 1.28878 -18.9728 -3.50131 -2.37749 3.91803 0.0559228 -2.96715e-06 -34.5151 -3.17876e-05 6.43245e-06 2.51718 0.0196203 -9.63e-07 -3.25624 -6.10031e-05 -1.7642e-05 3.28131 0 5.72205e-06 8.53774e-06 2.56132e-06 2.56132e-06 -2.88677 12.5391 -0.534969 4.54208 0.697748 0.336675 -10.2653 -4.57764e-05 -2.00272e-05 74.8172 -1.69721 -21.8218 -25.5729 0 -9.53675e-06 -0.230996 -0.0164692 18.5398 -19.807 -0.346 0 6.05957 8.02318 -9.15258 -1.80097 -1.26805 3.56624 -40.9383 38.5296 59.038 -2.63925 -0.0236185 -0.053142 8.69274 3.18056e-15 1.13821e-05 -2.69898 -0.823876 3.23385e-05 24.4726 0 -1.59828e-05 -3.8753 -0.61178 -2.783e-05 5.46415e-05 -2.71073e-05 6.61675e-06 -8.75386 -0.323142 -1.45759 29.1421 -9.23759 7.56527 -3.67081 0.00366537 1.15149e-05 21.1059 0.00034762 -4.04934e-05 -2.39166 0.00568728 -4.80439e-06 17.3156 -1.59028e-15 -9.45806e-06 -2.88246 2.68889e-05 6.63519e-06 -1.70755e-06 2.13443e-05 3.18055e-15 -7.36411 -1.01644 -3.41195 17.2578 -12.299 5.62134 -2.92337 0.0657748 -1.52586e-05 27.0852 3.85686e-05 -4.22274e-05 -1.90311 -0.0136937 3.52493e-06 23.0368 -4.45104e-05 1.91411e-05 -2.82564 6.28375e-05 2.02874e-05 2.73208e-05 -4.05542e-06 2.86014e-05 -9.03068 0.0333266 1.22996 17.9984 -3.63509 2.3478 -3.91801 0.0581239 -0.000244625 33.4904 0.000156161 -0.000133006 -2.51717 0.020931 -0.000343851 2.23159 -5.72286e-05 -4.29541e-05 -3.281 5.34608e-05 9.21197e-07 1.70755e-06 5.54953e-06 -2.86014e-05 -8.23537 -0.115414 3.69825 13.6937 10.4387 1.82084 -3.89614 0.2885 -0.000463274 16.7524 -7.06011e-05 4.05414e-05 -2.31839 0.159237 -0.000487052 5.06457 0.000236681 -2.98177e-15 -2.566 -7.68439e-06 -1.0274e-06 -1.70755e-06 -8.53774e-07 -2.73208e-05 -6.93889e-18 17.0656 0.263753 0.000245615 23.8034 -3.13567e-05 6.93889e-18 8.13758 0.00775528 -0.0540167 -3.78115 -0.0103769 5.68135e-07 29.3713 3.60361 -1.95045e-07 5.2964 2.28846e-06 5.1001 12.3524 9.66465 -0.000255643 0.586901 3.88272e-19 1.01128e-07 -0.0458202 3.30421e-07 1.83512e-16 7.95139e-16 -6 -5.0999 12.3066 9.66418 -0.000255643 0.586901 3.88272e-19 -8.96033e-08 1.93147e-06 3.30577e-07 6.95212e-18 3.97569e-16 -1.94126e-19 -7.5159 1.52588e-05 7.62939e-06 0.37356 -6.95798 -4.58491 -0.724057 -37.7363 0.184397 -1.10186 8.31745 0.0892718 0.000125885 -34.5752 -3.52859e-05 0.654589 -7.47414 -8.4791 1.14441e-05 -6.10491 11.1619 0.798055 0.278452 -0.0050841 7.51591 0 -7.62939e-06 0.750562 -7.12383 4.75542 0.00021553 -37.7436 0.0132276 -0.000697313 8.5676 0.00236526 5.34058e-05 -34.5752 -3.57628e-05 -0.661515 -7.46798 9.37191 -1.90735e-06 -6.10494 11.1619 -0.278484 0.798093 -0.00114913 
